<?xml version="1.0" encoding="UTF-8"?>
<svg xmlns="http://www.w3.org/2000/svg" xmlns:xlink="http://www.w3.org/1999/xlink" width="3000" height="3000" viewBox="0 0 3000 3000">
<defs>
<clipPath id="clip-0">
<path clip-rule="nonzero" d="M 787 776 L 3000 776 L 3000 3000 L 787 3000 Z M 787 776 "/>
</clipPath>
<clipPath id="clip-1">
<path clip-rule="evenodd" d="M 1500 0 C 2328.421875 0 3000 671.578125 3000 1500 C 3000 2328.425781 2328.421875 3000 1500 3000 C 671.574219 3000 0 2328.425781 0 1500 C 0 671.578125 671.574219 0 1500 0 Z M 1500 0 "/>
</clipPath>
<clipPath id="clip-2">
<path clip-rule="nonzero" d="M 1672 1082 L 3000 1082 L 3000 3000 L 1672 3000 Z M 1672 1082 "/>
</clipPath>
<clipPath id="clip-3">
<path clip-rule="evenodd" d="M 1500 0 C 2328.421875 0 3000 671.578125 3000 1500 C 3000 2328.425781 2328.421875 3000 1500 3000 C 671.574219 3000 0 2328.425781 0 1500 C 0 671.578125 671.574219 0 1500 0 Z M 1500 0 "/>
</clipPath>
<clipPath id="clip-4">
<path clip-rule="nonzero" d="M 1718 1134 L 3000 1134 L 3000 3000 L 1718 3000 Z M 1718 1134 "/>
</clipPath>
<clipPath id="clip-5">
<path clip-rule="evenodd" d="M 1500 0 C 2328.421875 0 3000 671.578125 3000 1500 C 3000 2328.425781 2328.421875 3000 1500 3000 C 671.574219 3000 0 2328.425781 0 1500 C 0 671.578125 671.574219 0 1500 0 Z M 1500 0 "/>
</clipPath>
<clipPath id="clip-6">
<path clip-rule="nonzero" d="M 1541 1178 L 3000 1178 L 3000 3000 L 1541 3000 Z M 1541 1178 "/>
</clipPath>
<clipPath id="clip-7">
<path clip-rule="evenodd" d="M 1500 0 C 2328.421875 0 3000 671.578125 3000 1500 C 3000 2328.425781 2328.421875 3000 1500 3000 C 671.574219 3000 0 2328.425781 0 1500 C 0 671.578125 671.574219 0 1500 0 Z M 1500 0 "/>
</clipPath>
<clipPath id="clip-8">
<path clip-rule="nonzero" d="M 759 804 L 3000 804 L 3000 3000 L 759 3000 Z M 759 804 "/>
</clipPath>
<clipPath id="clip-9">
<path clip-rule="evenodd" d="M 1500 0 C 2328.421875 0 3000 671.578125 3000 1500 C 3000 2328.425781 2328.421875 3000 1500 3000 C 671.574219 3000 0 2328.425781 0 1500 C 0 671.578125 671.574219 0 1500 0 Z M 1500 0 "/>
</clipPath>
<clipPath id="clip-10">
<path clip-rule="nonzero" d="M 911 683 L 3000 683 L 3000 3000 L 911 3000 Z M 911 683 "/>
</clipPath>
<clipPath id="clip-11">
<path clip-rule="evenodd" d="M 1500 0 C 2328.421875 0 3000 671.578125 3000 1500 C 3000 2328.425781 2328.421875 3000 1500 3000 C 671.574219 3000 0 2328.425781 0 1500 C 0 671.578125 671.574219 0 1500 0 Z M 1500 0 "/>
</clipPath>
<clipPath id="clip-12">
<path clip-rule="nonzero" d="M 1853 1006 L 3000 1006 L 3000 3000 L 1853 3000 Z M 1853 1006 "/>
</clipPath>
<clipPath id="clip-13">
<path clip-rule="evenodd" d="M 1500 0 C 2328.421875 0 3000 671.578125 3000 1500 C 3000 2328.425781 2328.421875 3000 1500 3000 C 671.574219 3000 0 2328.425781 0 1500 C 0 671.578125 671.574219 0 1500 0 Z M 1500 0 "/>
</clipPath>
<clipPath id="clip-14">
<path clip-rule="nonzero" d="M 891 741 L 3000 741 L 3000 3000 L 891 3000 Z M 891 741 "/>
</clipPath>
<clipPath id="clip-15">
<path clip-rule="evenodd" d="M 1500 0 C 2328.421875 0 3000 671.578125 3000 1500 C 3000 2328.425781 2328.421875 3000 1500 3000 C 671.574219 3000 0 2328.425781 0 1500 C 0 671.578125 671.574219 0 1500 0 Z M 1500 0 "/>
</clipPath>
<clipPath id="clip-16">
<path clip-rule="nonzero" d="M 666 928 L 3000 928 L 3000 3000 L 666 3000 Z M 666 928 "/>
</clipPath>
<clipPath id="clip-17">
<path clip-rule="evenodd" d="M 1500 0 C 2328.421875 0 3000 671.578125 3000 1500 C 3000 2328.425781 2328.421875 3000 1500 3000 C 671.574219 3000 0 2328.425781 0 1500 C 0 671.578125 671.574219 0 1500 0 Z M 1500 0 "/>
</clipPath>
<clipPath id="clip-18">
<path clip-rule="nonzero" d="M 876 755 L 3000 755 L 3000 3000 L 876 3000 Z M 876 755 "/>
</clipPath>
<clipPath id="clip-19">
<path clip-rule="evenodd" d="M 1500 0 C 2328.421875 0 3000 671.578125 3000 1500 C 3000 2328.425781 2328.421875 3000 1500 3000 C 671.574219 3000 0 2328.425781 0 1500 C 0 671.578125 671.574219 0 1500 0 Z M 1500 0 "/>
</clipPath>
<clipPath id="clip-20">
<path clip-rule="nonzero" d="M 905 669 L 3000 669 L 3000 3000 L 905 3000 Z M 905 669 "/>
</clipPath>
<clipPath id="clip-21">
<path clip-rule="evenodd" d="M 1500 0 C 2328.421875 0 3000 671.578125 3000 1500 C 3000 2328.425781 2328.421875 3000 1500 3000 C 671.574219 3000 0 2328.425781 0 1500 C 0 671.578125 671.574219 0 1500 0 Z M 1500 0 "/>
</clipPath>
<clipPath id="clip-22">
<path clip-rule="nonzero" d="M 989 810 L 3000 810 L 3000 3000 L 989 3000 Z M 989 810 "/>
</clipPath>
<clipPath id="clip-23">
<path clip-rule="evenodd" d="M 1500 0 C 2328.421875 0 3000 671.578125 3000 1500 C 3000 2328.425781 2328.421875 3000 1500 3000 C 671.574219 3000 0 2328.425781 0 1500 C 0 671.578125 671.574219 0 1500 0 Z M 1500 0 "/>
</clipPath>
<clipPath id="clip-24">
<path clip-rule="nonzero" d="M 738 893 L 3000 893 L 3000 3000 L 738 3000 Z M 738 893 "/>
</clipPath>
<clipPath id="clip-25">
<path clip-rule="evenodd" d="M 1500 0 C 2328.421875 0 3000 671.578125 3000 1500 C 3000 2328.425781 2328.421875 3000 1500 3000 C 671.574219 3000 0 2328.425781 0 1500 C 0 671.578125 671.574219 0 1500 0 Z M 1500 0 "/>
</clipPath>
<clipPath id="clip-26">
<path clip-rule="nonzero" d="M 1022 763 L 3000 763 L 3000 3000 L 1022 3000 Z M 1022 763 "/>
</clipPath>
<clipPath id="clip-27">
<path clip-rule="evenodd" d="M 1500 0 C 2328.421875 0 3000 671.578125 3000 1500 C 3000 2328.425781 2328.421875 3000 1500 3000 C 671.574219 3000 0 2328.425781 0 1500 C 0 671.578125 671.574219 0 1500 0 Z M 1500 0 "/>
</clipPath>
<clipPath id="clip-28">
<path clip-rule="nonzero" d="M 898 1892 L 3000 1892 L 3000 3000 L 898 3000 Z M 898 1892 "/>
</clipPath>
<clipPath id="clip-29">
<path clip-rule="evenodd" d="M 1500 0 C 2328.421875 0 3000 671.578125 3000 1500 C 3000 2328.425781 2328.421875 3000 1500 3000 C 671.574219 3000 0 2328.425781 0 1500 C 0 671.578125 671.574219 0 1500 0 Z M 1500 0 "/>
</clipPath>
<clipPath id="clip-30">
<path clip-rule="nonzero" d="M 724 908 L 3000 908 L 3000 3000 L 724 3000 Z M 724 908 "/>
</clipPath>
<clipPath id="clip-31">
<path clip-rule="evenodd" d="M 1500 0 C 2328.421875 0 3000 671.578125 3000 1500 C 3000 2328.425781 2328.421875 3000 1500 3000 C 671.574219 3000 0 2328.425781 0 1500 C 0 671.578125 671.574219 0 1500 0 Z M 1500 0 "/>
</clipPath>
<clipPath id="clip-32">
<path clip-rule="nonzero" d="M 989 908 L 3000 908 L 3000 3000 L 989 3000 Z M 989 908 "/>
</clipPath>
<clipPath id="clip-33">
<path clip-rule="evenodd" d="M 1500 0 C 2328.421875 0 3000 671.578125 3000 1500 C 3000 2328.425781 2328.421875 3000 1500 3000 C 671.574219 3000 0 2328.425781 0 1500 C 0 671.578125 671.574219 0 1500 0 Z M 1500 0 "/>
</clipPath>
<clipPath id="clip-34">
<path clip-rule="nonzero" d="M 1057 928 L 3000 928 L 3000 3000 L 1057 3000 Z M 1057 928 "/>
</clipPath>
<clipPath id="clip-35">
<path clip-rule="evenodd" d="M 1500 0 C 2328.421875 0 3000 671.578125 3000 1500 C 3000 2328.425781 2328.421875 3000 1500 3000 C 671.574219 3000 0 2328.425781 0 1500 C 0 671.578125 671.574219 0 1500 0 Z M 1500 0 "/>
</clipPath>
<clipPath id="clip-36">
<path clip-rule="nonzero" d="M 652 922 L 3000 922 L 3000 3000 L 652 3000 Z M 652 922 "/>
</clipPath>
<clipPath id="clip-37">
<path clip-rule="evenodd" d="M 1500 0 C 2328.421875 0 3000 671.578125 3000 1500 C 3000 2328.425781 2328.421875 3000 1500 3000 C 671.574219 3000 0 2328.425781 0 1500 C 0 671.578125 671.574219 0 1500 0 Z M 1500 0 "/>
</clipPath>
<clipPath id="clip-38">
<path clip-rule="nonzero" d="M 898 1934 L 3000 1934 L 3000 3000 L 898 3000 Z M 898 1934 "/>
</clipPath>
<clipPath id="clip-39">
<path clip-rule="evenodd" d="M 1500 0 C 2328.421875 0 3000 671.578125 3000 1500 C 3000 2328.425781 2328.421875 3000 1500 3000 C 671.574219 3000 0 2328.425781 0 1500 C 0 671.578125 671.574219 0 1500 0 Z M 1500 0 "/>
</clipPath>
<clipPath id="clip-40">
<path clip-rule="nonzero" d="M 746 1039 L 3000 1039 L 3000 3000 L 746 3000 Z M 746 1039 "/>
</clipPath>
<clipPath id="clip-41">
<path clip-rule="evenodd" d="M 1500 0 C 2328.421875 0 3000 671.578125 3000 1500 C 3000 2328.425781 2328.421875 3000 1500 3000 C 671.574219 3000 0 2328.425781 0 1500 C 0 671.578125 671.574219 0 1500 0 Z M 1500 0 "/>
</clipPath>
<clipPath id="clip-42">
<path clip-rule="nonzero" d="M 1768 1224 L 3000 1224 L 3000 3000 L 1768 3000 Z M 1768 1224 "/>
</clipPath>
<clipPath id="clip-43">
<path clip-rule="evenodd" d="M 1500 0 C 2328.421875 0 3000 671.578125 3000 1500 C 3000 2328.425781 2328.421875 3000 1500 3000 C 671.574219 3000 0 2328.425781 0 1500 C 0 671.578125 671.574219 0 1500 0 Z M 1500 0 "/>
</clipPath>
<clipPath id="clip-44">
<path clip-rule="nonzero" d="M 1129 893 L 3000 893 L 3000 3000 L 1129 3000 Z M 1129 893 "/>
</clipPath>
<clipPath id="clip-45">
<path clip-rule="evenodd" d="M 1500 0 C 2328.421875 0 3000 671.578125 3000 1500 C 3000 2328.425781 2328.421875 3000 1500 3000 C 671.574219 3000 0 2328.425781 0 1500 C 0 671.578125 671.574219 0 1500 0 Z M 1500 0 "/>
</clipPath>
<clipPath id="clip-46">
<path clip-rule="nonzero" d="M 891 1006 L 3000 1006 L 3000 3000 L 891 3000 Z M 891 1006 "/>
</clipPath>
<clipPath id="clip-47">
<path clip-rule="evenodd" d="M 1500 0 C 2328.421875 0 3000 671.578125 3000 1500 C 3000 2328.425781 2328.421875 3000 1500 3000 C 671.574219 3000 0 2328.425781 0 1500 C 0 671.578125 671.574219 0 1500 0 Z M 1500 0 "/>
</clipPath>
<clipPath id="clip-48">
<path clip-rule="nonzero" d="M 1063 735 L 3000 735 L 3000 3000 L 1063 3000 Z M 1063 735 "/>
</clipPath>
<clipPath id="clip-49">
<path clip-rule="evenodd" d="M 1500 0 C 2328.421875 0 3000 671.578125 3000 1500 C 3000 2328.425781 2328.421875 3000 1500 3000 C 671.574219 3000 0 2328.425781 0 1500 C 0 671.578125 671.574219 0 1500 0 Z M 1500 0 "/>
</clipPath>
<clipPath id="clip-50">
<path clip-rule="nonzero" d="M 994 804 L 3000 804 L 3000 3000 L 994 3000 Z M 994 804 "/>
</clipPath>
<clipPath id="clip-51">
<path clip-rule="evenodd" d="M 1500 0 C 2328.421875 0 3000 671.578125 3000 1500 C 3000 2328.425781 2328.421875 3000 1500 3000 C 671.574219 3000 0 2328.425781 0 1500 C 0 671.578125 671.574219 0 1500 0 Z M 1500 0 "/>
</clipPath>
<clipPath id="clip-52">
<path clip-rule="nonzero" d="M 793 1006 L 3000 1006 L 3000 3000 L 793 3000 Z M 793 1006 "/>
</clipPath>
<clipPath id="clip-53">
<path clip-rule="evenodd" d="M 1500 0 C 2328.421875 0 3000 671.578125 3000 1500 C 3000 2328.425781 2328.421875 3000 1500 3000 C 671.574219 3000 0 2328.425781 0 1500 C 0 671.578125 671.574219 0 1500 0 Z M 1500 0 "/>
</clipPath>
<clipPath id="clip-54">
<path clip-rule="nonzero" d="M 2232 1006 L 3000 1006 L 3000 3000 L 2232 3000 Z M 2232 1006 "/>
</clipPath>
<clipPath id="clip-55">
<path clip-rule="evenodd" d="M 1500 0 C 2328.421875 0 3000 671.578125 3000 1500 C 3000 2328.425781 2328.421875 3000 1500 3000 C 671.574219 3000 0 2328.425781 0 1500 C 0 671.578125 671.574219 0 1500 0 Z M 1500 0 "/>
</clipPath>
<clipPath id="clip-56">
<path clip-rule="nonzero" d="M 1909 1102 L 3000 1102 L 3000 3000 L 1909 3000 Z M 1909 1102 "/>
</clipPath>
<clipPath id="clip-57">
<path clip-rule="evenodd" d="M 1500 0 C 2328.421875 0 3000 671.578125 3000 1500 C 3000 2328.425781 2328.421875 3000 1500 3000 C 671.574219 3000 0 2328.425781 0 1500 C 0 671.578125 671.574219 0 1500 0 Z M 1500 0 "/>
</clipPath>
<clipPath id="clip-58">
<path clip-rule="nonzero" d="M 2080 1167 L 3000 1167 L 3000 3000 L 2080 3000 Z M 2080 1167 "/>
</clipPath>
<clipPath id="clip-59">
<path clip-rule="evenodd" d="M 1500 0 C 2328.421875 0 3000 671.578125 3000 1500 C 3000 2328.425781 2328.421875 3000 1500 3000 C 671.574219 3000 0 2328.425781 0 1500 C 0 671.578125 671.574219 0 1500 0 Z M 1500 0 "/>
</clipPath>
<clipPath id="clip-60">
<path clip-rule="nonzero" d="M 1115 908 L 3000 908 L 3000 3000 L 1115 3000 Z M 1115 908 "/>
</clipPath>
<clipPath id="clip-61">
<path clip-rule="evenodd" d="M 1500 0 C 2328.421875 0 3000 671.578125 3000 1500 C 3000 2328.425781 2328.421875 3000 1500 3000 C 671.574219 3000 0 2328.425781 0 1500 C 0 671.578125 671.574219 0 1500 0 Z M 1500 0 "/>
</clipPath>
<clipPath id="clip-62">
<path clip-rule="nonzero" d="M 2039 1320 L 3000 1320 L 3000 3000 L 2039 3000 Z M 2039 1320 "/>
</clipPath>
<clipPath id="clip-63">
<path clip-rule="evenodd" d="M 1500 0 C 2328.421875 0 3000 671.578125 3000 1500 C 3000 2328.425781 2328.421875 3000 1500 3000 C 671.574219 3000 0 2328.425781 0 1500 C 0 671.578125 671.574219 0 1500 0 Z M 1500 0 "/>
</clipPath>
<clipPath id="clip-64">
<path clip-rule="nonzero" d="M 2037 1328 L 3000 1328 L 3000 3000 L 2037 3000 Z M 2037 1328 "/>
</clipPath>
<clipPath id="clip-65">
<path clip-rule="evenodd" d="M 1500 0 C 2328.421875 0 3000 671.578125 3000 1500 C 3000 2328.425781 2328.421875 3000 1500 3000 C 671.574219 3000 0 2328.425781 0 1500 C 0 671.578125 671.574219 0 1500 0 Z M 1500 0 "/>
</clipPath>
<clipPath id="clip-66">
<path clip-rule="nonzero" d="M 1539 1246 L 3000 1246 L 3000 3000 L 1539 3000 Z M 1539 1246 "/>
</clipPath>
<clipPath id="clip-67">
<path clip-rule="evenodd" d="M 1500 0 C 2328.421875 0 3000 671.578125 3000 1500 C 3000 2328.425781 2328.421875 3000 1500 3000 C 671.574219 3000 0 2328.425781 0 1500 C 0 671.578125 671.574219 0 1500 0 Z M 1500 0 "/>
</clipPath>
<clipPath id="clip-68">
<path clip-rule="nonzero" d="M 787 1011 L 3000 1011 L 3000 3000 L 787 3000 Z M 787 1011 "/>
</clipPath>
<clipPath id="clip-69">
<path clip-rule="evenodd" d="M 1500 0 C 2328.421875 0 3000 671.578125 3000 1500 C 3000 2328.425781 2328.421875 3000 1500 3000 C 671.574219 3000 0 2328.425781 0 1500 C 0 671.578125 671.574219 0 1500 0 Z M 1500 0 "/>
</clipPath>
<clipPath id="clip-70">
<path clip-rule="nonzero" d="M 1083 1062 L 3000 1062 L 3000 3000 L 1083 3000 Z M 1083 1062 "/>
</clipPath>
<clipPath id="clip-71">
<path clip-rule="evenodd" d="M 1500 0 C 2328.421875 0 3000 671.578125 3000 1500 C 3000 2328.425781 2328.421875 3000 1500 3000 C 671.574219 3000 0 2328.425781 0 1500 C 0 671.578125 671.574219 0 1500 0 Z M 1500 0 "/>
</clipPath>
<clipPath id="clip-72">
<path clip-rule="nonzero" d="M 718 1080 L 3000 1080 L 3000 3000 L 718 3000 Z M 718 1080 "/>
</clipPath>
<clipPath id="clip-73">
<path clip-rule="evenodd" d="M 1500 0 C 2328.421875 0 3000 671.578125 3000 1500 C 3000 2328.425781 2328.421875 3000 1500 3000 C 671.574219 3000 0 2328.425781 0 1500 C 0 671.578125 671.574219 0 1500 0 Z M 1500 0 "/>
</clipPath>
<clipPath id="clip-74">
<path clip-rule="nonzero" d="M 1055 1090 L 3000 1090 L 3000 3000 L 1055 3000 Z M 1055 1090 "/>
</clipPath>
<clipPath id="clip-75">
<path clip-rule="evenodd" d="M 1500 0 C 2328.421875 0 3000 671.578125 3000 1500 C 3000 2328.425781 2328.421875 3000 1500 3000 C 671.574219 3000 0 2328.425781 0 1500 C 0 671.578125 671.574219 0 1500 0 Z M 1500 0 "/>
</clipPath>
<clipPath id="clip-76">
<path clip-rule="nonzero" d="M 911 1074 L 3000 1074 L 3000 3000 L 911 3000 Z M 911 1074 "/>
</clipPath>
<clipPath id="clip-77">
<path clip-rule="evenodd" d="M 1500 0 C 2328.421875 0 3000 671.578125 3000 1500 C 3000 2328.425781 2328.421875 3000 1500 3000 C 671.574219 3000 0 2328.425781 0 1500 C 0 671.578125 671.574219 0 1500 0 Z M 1500 0 "/>
</clipPath>
<clipPath id="clip-78">
<path clip-rule="nonzero" d="M 891 1132 L 3000 1132 L 3000 3000 L 891 3000 Z M 891 1132 "/>
</clipPath>
<clipPath id="clip-79">
<path clip-rule="evenodd" d="M 1500 0 C 2328.421875 0 3000 671.578125 3000 1500 C 3000 2328.425781 2328.421875 3000 1500 3000 C 671.574219 3000 0 2328.425781 0 1500 C 0 671.578125 671.574219 0 1500 0 Z M 1500 0 "/>
</clipPath>
<clipPath id="clip-80">
<path clip-rule="nonzero" d="M 876 1146 L 3000 1146 L 3000 3000 L 876 3000 Z M 876 1146 "/>
</clipPath>
<clipPath id="clip-81">
<path clip-rule="evenodd" d="M 1500 0 C 2328.421875 0 3000 671.578125 3000 1500 C 3000 2328.425781 2328.421875 3000 1500 3000 C 671.574219 3000 0 2328.425781 0 1500 C 0 671.578125 671.574219 0 1500 0 Z M 1500 0 "/>
</clipPath>
<clipPath id="clip-82">
<path clip-rule="nonzero" d="M 905 1060 L 3000 1060 L 3000 3000 L 905 3000 Z M 905 1060 "/>
</clipPath>
<clipPath id="clip-83">
<path clip-rule="evenodd" d="M 1500 0 C 2328.421875 0 3000 671.578125 3000 1500 C 3000 2328.425781 2328.421875 3000 1500 3000 C 671.574219 3000 0 2328.425781 0 1500 C 0 671.578125 671.574219 0 1500 0 Z M 1500 0 "/>
</clipPath>
<clipPath id="clip-84">
<path clip-rule="nonzero" d="M 1043 922 L 3000 922 L 3000 3000 L 1043 3000 Z M 1043 922 "/>
</clipPath>
<clipPath id="clip-85">
<path clip-rule="evenodd" d="M 1500 0 C 2328.421875 0 3000 671.578125 3000 1500 C 3000 2328.425781 2328.421875 3000 1500 3000 C 671.574219 3000 0 2328.425781 0 1500 C 0 671.578125 671.574219 0 1500 0 Z M 1500 0 "/>
</clipPath>
<clipPath id="clip-86">
<path clip-rule="nonzero" d="M 1111 1494 L 3000 1494 L 3000 3000 L 1111 3000 Z M 1111 1494 "/>
</clipPath>
<clipPath id="clip-87">
<path clip-rule="evenodd" d="M 1500 0 C 2328.421875 0 3000 671.578125 3000 1500 C 3000 2328.425781 2328.421875 3000 1500 3000 C 671.574219 3000 0 2328.425781 0 1500 C 0 671.578125 671.574219 0 1500 0 Z M 1500 0 "/>
</clipPath>
<clipPath id="clip-88">
<path clip-rule="nonzero" d="M 1355 1315 L 3000 1315 L 3000 3000 L 1355 3000 Z M 1355 1315 "/>
</clipPath>
<clipPath id="clip-89">
<path clip-rule="evenodd" d="M 1500 0 C 2328.421875 0 3000 671.578125 3000 1500 C 3000 2328.425781 2328.421875 3000 1500 3000 C 671.574219 3000 0 2328.425781 0 1500 C 0 671.578125 671.574219 0 1500 0 Z M 1500 0 "/>
</clipPath>
<clipPath id="clip-90">
<path clip-rule="nonzero" d="M 1312 1398 L 3000 1398 L 3000 3000 L 1312 3000 Z M 1312 1398 "/>
</clipPath>
<clipPath id="clip-91">
<path clip-rule="evenodd" d="M 1500 0 C 2328.421875 0 3000 671.578125 3000 1500 C 3000 2328.425781 2328.421875 3000 1500 3000 C 671.574219 3000 0 2328.425781 0 1500 C 0 671.578125 671.574219 0 1500 0 Z M 1500 0 "/>
</clipPath>
<clipPath id="clip-92">
<path clip-rule="nonzero" d="M 1356 1576 L 3000 1576 L 3000 3000 L 1356 3000 Z M 1356 1576 "/>
</clipPath>
<clipPath id="clip-93">
<path clip-rule="evenodd" d="M 1500 0 C 2328.421875 0 3000 671.578125 3000 1500 C 3000 2328.425781 2328.421875 3000 1500 3000 C 671.574219 3000 0 2328.425781 0 1500 C 0 671.578125 671.574219 0 1500 0 Z M 1500 0 "/>
</clipPath>
<clipPath id="clip-94">
<path clip-rule="nonzero" d="M 898 1814 L 3000 1814 L 3000 3000 L 898 3000 Z M 898 1814 "/>
</clipPath>
<clipPath id="clip-95">
<path clip-rule="evenodd" d="M 1500 0 C 2328.421875 0 3000 671.578125 3000 1500 C 3000 2328.425781 2328.421875 3000 1500 3000 C 671.574219 3000 0 2328.425781 0 1500 C 0 671.578125 671.574219 0 1500 0 Z M 1500 0 "/>
</clipPath>
<clipPath id="clip-96">
<path clip-rule="nonzero" d="M 1820 1912 L 3000 1912 L 3000 3000 L 1820 3000 Z M 1820 1912 "/>
</clipPath>
<clipPath id="clip-97">
<path clip-rule="evenodd" d="M 1500 0 C 2328.421875 0 3000 671.578125 3000 1500 C 3000 2328.425781 2328.421875 3000 1500 3000 C 671.574219 3000 0 2328.425781 0 1500 C 0 671.578125 671.574219 0 1500 0 Z M 1500 0 "/>
</clipPath>
<clipPath id="clip-98">
<path clip-rule="nonzero" d="M 1800 1932 L 3000 1932 L 3000 3000 L 1800 3000 Z M 1800 1932 "/>
</clipPath>
<clipPath id="clip-99">
<path clip-rule="evenodd" d="M 1500 0 C 2328.421875 0 3000 671.578125 3000 1500 C 3000 2328.425781 2328.421875 3000 1500 3000 C 671.574219 3000 0 2328.425781 0 1500 C 0 671.578125 671.574219 0 1500 0 Z M 1500 0 "/>
</clipPath>
<clipPath id="clip-100">
<path clip-rule="nonzero" d="M 766 2296 L 3000 2296 L 3000 3000 L 766 3000 Z M 766 2296 "/>
</clipPath>
<clipPath id="clip-101">
<path clip-rule="evenodd" d="M 1500 0 C 2328.421875 0 3000 671.578125 3000 1500 C 3000 2328.425781 2328.421875 3000 1500 3000 C 671.574219 3000 0 2328.425781 0 1500 C 0 671.578125 671.574219 0 1500 0 Z M 1500 0 "/>
</clipPath>
<clipPath id="clip-102">
<path clip-rule="nonzero" d="M 1468 1932 L 3000 1932 L 3000 3000 L 1468 3000 Z M 1468 1932 "/>
</clipPath>
<clipPath id="clip-103">
<path clip-rule="evenodd" d="M 1500 0 C 2328.421875 0 3000 671.578125 3000 1500 C 3000 2328.425781 2328.421875 3000 1500 3000 C 671.574219 3000 0 2328.425781 0 1500 C 0 671.578125 671.574219 0 1500 0 Z M 1500 0 "/>
</clipPath>
<clipPath id="clip-104">
<path clip-rule="nonzero" d="M 1585 1380 L 3000 1380 L 3000 3000 L 1585 3000 Z M 1585 1380 "/>
</clipPath>
<clipPath id="clip-105">
<path clip-rule="evenodd" d="M 1500 0 C 2328.421875 0 3000 671.578125 3000 1500 C 3000 2328.425781 2328.421875 3000 1500 3000 C 671.574219 3000 0 2328.425781 0 1500 C 0 671.578125 671.574219 0 1500 0 Z M 1500 0 "/>
</clipPath>
<clipPath id="clip-106">
<path clip-rule="nonzero" d="M 1759 1796 L 3000 1796 L 3000 3000 L 1759 3000 Z M 1759 1796 "/>
</clipPath>
<clipPath id="clip-107">
<path clip-rule="evenodd" d="M 1500 0 C 2328.421875 0 3000 671.578125 3000 1500 C 3000 2328.425781 2328.421875 3000 1500 3000 C 671.574219 3000 0 2328.425781 0 1500 C 0 671.578125 671.574219 0 1500 0 Z M 1500 0 "/>
</clipPath>
<clipPath id="clip-108">
<path clip-rule="nonzero" d="M 1689 1530 L 3000 1530 L 3000 3000 L 1689 3000 Z M 1689 1530 "/>
</clipPath>
<clipPath id="clip-109">
<path clip-rule="evenodd" d="M 1500 0 C 2328.421875 0 3000 671.578125 3000 1500 C 3000 2328.425781 2328.421875 3000 1500 3000 C 671.574219 3000 0 2328.425781 0 1500 C 0 671.578125 671.574219 0 1500 0 Z M 1500 0 "/>
</clipPath>
<clipPath id="clip-110">
<path clip-rule="nonzero" d="M 1743 1812 L 3000 1812 L 3000 3000 L 1743 3000 Z M 1743 1812 "/>
</clipPath>
<clipPath id="clip-111">
<path clip-rule="evenodd" d="M 1500 0 C 2328.421875 0 3000 671.578125 3000 1500 C 3000 2328.425781 2328.421875 3000 1500 3000 C 671.574219 3000 0 2328.425781 0 1500 C 0 671.578125 671.574219 0 1500 0 Z M 1500 0 "/>
</clipPath>
<clipPath id="clip-112">
<path clip-rule="nonzero" d="M 1468 1932 L 3000 1932 L 3000 3000 L 1468 3000 Z M 1468 1932 "/>
</clipPath>
<clipPath id="clip-113">
<path clip-rule="evenodd" d="M 1500 0 C 2328.421875 0 3000 671.578125 3000 1500 C 3000 2328.425781 2328.421875 3000 1500 3000 C 671.574219 3000 0 2328.425781 0 1500 C 0 671.578125 671.574219 0 1500 0 Z M 1500 0 "/>
</clipPath>
<clipPath id="clip-114">
<path clip-rule="nonzero" d="M 1529 1969 L 3000 1969 L 3000 3000 L 1529 3000 Z M 1529 1969 "/>
</clipPath>
<clipPath id="clip-115">
<path clip-rule="evenodd" d="M 1500 0 C 2328.421875 0 3000 671.578125 3000 1500 C 3000 2328.425781 2328.421875 3000 1500 3000 C 671.574219 3000 0 2328.425781 0 1500 C 0 671.578125 671.574219 0 1500 0 Z M 1500 0 "/>
</clipPath>
<clipPath id="clip-116">
<path clip-rule="nonzero" d="M 1837 1966 L 3000 1966 L 3000 3000 L 1837 3000 Z M 1837 1966 "/>
</clipPath>
<clipPath id="clip-117">
<path clip-rule="evenodd" d="M 1500 0 C 2328.421875 0 3000 671.578125 3000 1500 C 3000 2328.425781 2328.421875 3000 1500 3000 C 671.574219 3000 0 2328.425781 0 1500 C 0 671.578125 671.574219 0 1500 0 Z M 1500 0 "/>
</clipPath>
<clipPath id="clip-118">
<path clip-rule="nonzero" d="M 1902 1330 L 3000 1330 L 3000 3000 L 1902 3000 Z M 1902 1330 "/>
</clipPath>
<clipPath id="clip-119">
<path clip-rule="evenodd" d="M 1500 0 C 2328.421875 0 3000 671.578125 3000 1500 C 3000 2328.425781 2328.421875 3000 1500 3000 C 671.574219 3000 0 2328.425781 0 1500 C 0 671.578125 671.574219 0 1500 0 Z M 1500 0 "/>
</clipPath>
<clipPath id="clip-120">
<path clip-rule="nonzero" d="M 1760 1657 L 3000 1657 L 3000 3000 L 1760 3000 Z M 1760 1657 "/>
</clipPath>
<clipPath id="clip-121">
<path clip-rule="evenodd" d="M 1500 0 C 2328.421875 0 3000 671.578125 3000 1500 C 3000 2328.425781 2328.421875 3000 1500 3000 C 671.574219 3000 0 2328.425781 0 1500 C 0 671.578125 671.574219 0 1500 0 Z M 1500 0 "/>
</clipPath>
<clipPath id="clip-122">
<path clip-rule="nonzero" d="M 1869 1501 L 3000 1501 L 3000 3000 L 1869 3000 Z M 1869 1501 "/>
</clipPath>
<clipPath id="clip-123">
<path clip-rule="evenodd" d="M 1500 0 C 2328.421875 0 3000 671.578125 3000 1500 C 3000 2328.425781 2328.421875 3000 1500 3000 C 671.574219 3000 0 2328.425781 0 1500 C 0 671.578125 671.574219 0 1500 0 Z M 1500 0 "/>
</clipPath>
<clipPath id="clip-124">
<path clip-rule="nonzero" d="M 1844 1502 L 3000 1502 L 3000 3000 L 1844 3000 Z M 1844 1502 "/>
</clipPath>
<clipPath id="clip-125">
<path clip-rule="evenodd" d="M 1500 0 C 2328.421875 0 3000 671.578125 3000 1500 C 3000 2328.425781 2328.421875 3000 1500 3000 C 671.574219 3000 0 2328.425781 0 1500 C 0 671.578125 671.574219 0 1500 0 Z M 1500 0 "/>
</clipPath>
<clipPath id="clip-126">
<path clip-rule="nonzero" d="M 1842 1528 L 3000 1528 L 3000 3000 L 1842 3000 Z M 1842 1528 "/>
</clipPath>
<clipPath id="clip-127">
<path clip-rule="evenodd" d="M 1500 0 C 2328.421875 0 3000 671.578125 3000 1500 C 3000 2328.425781 2328.421875 3000 1500 3000 C 671.574219 3000 0 2328.425781 0 1500 C 0 671.578125 671.574219 0 1500 0 Z M 1500 0 "/>
</clipPath>
<clipPath id="clip-128">
<path clip-rule="nonzero" d="M 1535 2330 L 3000 2330 L 3000 3000 L 1535 3000 Z M 1535 2330 "/>
</clipPath>
<clipPath id="clip-129">
<path clip-rule="evenodd" d="M 1500 0 C 2328.421875 0 3000 671.578125 3000 1500 C 3000 2328.425781 2328.421875 3000 1500 3000 C 671.574219 3000 0 2328.425781 0 1500 C 0 671.578125 671.574219 0 1500 0 Z M 1500 0 "/>
</clipPath>
<clipPath id="clip-130">
<path clip-rule="nonzero" d="M 1820 1601 L 3000 1601 L 3000 3000 L 1820 3000 Z M 1820 1601 "/>
</clipPath>
<clipPath id="clip-131">
<path clip-rule="evenodd" d="M 1500 0 C 2328.421875 0 3000 671.578125 3000 1500 C 3000 2328.425781 2328.421875 3000 1500 3000 C 671.574219 3000 0 2328.425781 0 1500 C 0 671.578125 671.574219 0 1500 0 Z M 1500 0 "/>
</clipPath>
<clipPath id="clip-132">
<path clip-rule="nonzero" d="M 2032 1392 L 3000 1392 L 3000 3000 L 2032 3000 Z M 2032 1392 "/>
</clipPath>
<clipPath id="clip-133">
<path clip-rule="evenodd" d="M 1500 0 C 2328.421875 0 3000 671.578125 3000 1500 C 3000 2328.425781 2328.421875 3000 1500 3000 C 671.574219 3000 0 2328.425781 0 1500 C 0 671.578125 671.574219 0 1500 0 Z M 1500 0 "/>
</clipPath>
<clipPath id="clip-134">
<path clip-rule="nonzero" d="M 2338 2302 L 3000 2302 L 3000 3000 L 2338 3000 Z M 2338 2302 "/>
</clipPath>
<clipPath id="clip-135">
<path clip-rule="evenodd" d="M 1500 0 C 2328.421875 0 3000 671.578125 3000 1500 C 3000 2328.425781 2328.421875 3000 1500 3000 C 671.574219 3000 0 2328.425781 0 1500 C 0 671.578125 671.574219 0 1500 0 Z M 1500 0 "/>
</clipPath>
<clipPath id="clip-136">
<path clip-rule="nonzero" d="M 2324 2316 L 3000 2316 L 3000 3000 L 2324 3000 Z M 2324 2316 "/>
</clipPath>
<clipPath id="clip-137">
<path clip-rule="evenodd" d="M 1500 0 C 2328.421875 0 3000 671.578125 3000 1500 C 3000 2328.425781 2328.421875 3000 1500 3000 C 671.574219 3000 0 2328.425781 0 1500 C 0 671.578125 671.574219 0 1500 0 Z M 1500 0 "/>
</clipPath>
<clipPath id="clip-138">
<path clip-rule="nonzero" d="M 1549 2336 L 3000 2336 L 3000 3000 L 1549 3000 Z M 1549 2336 "/>
</clipPath>
<clipPath id="clip-139">
<path clip-rule="evenodd" d="M 1500 0 C 2328.421875 0 3000 671.578125 3000 1500 C 3000 2328.425781 2328.421875 3000 1500 3000 C 671.574219 3000 0 2328.425781 0 1500 C 0 671.578125 671.574219 0 1500 0 Z M 1500 0 "/>
</clipPath>
<clipPath id="clip-140">
<path clip-rule="nonzero" d="M 646 663 L 2354 663 L 2354 2337 L 646 2337 Z M 646 663 "/>
</clipPath>
<clipPath id="clip-141">
<path clip-rule="evenodd" d="M 1500 0 C 2328.421875 0 3000 671.578125 3000 1500 C 3000 2328.425781 2328.421875 3000 1500 3000 C 671.574219 3000 0 2328.425781 0 1500 C 0 671.578125 671.574219 0 1500 0 Z M 1500 0 "/>
</clipPath>
</defs>
<path fill-rule="evenodd" fill="rgb(76.951599%, 34.130859%, 56.834412%)" fill-opacity="1" d="M 1500 0 C 2328.421875 0 3000 671.578125 3000 1500 C 3000 2328.425781 2328.421875 3000 1500 3000 C 671.574219 3000 0 2328.425781 0 1500 C 0 671.578125 671.574219 0 1500 0 "/>
<g clip-path="url(#clip-0)">
<g clip-path="url(#clip-1)">
<path fill-rule="evenodd" fill="rgb(61.914062%, 27.43988%, 46.263123%)" fill-opacity="1" d="M 787.546875 776.238281 L 4573.808594 4562.519531 L 4576.378906 4565.648438 L 4578.210938 4569.128906 L 4579.308594 4572.839844 L 4579.671875 4576.660156 L 4579.308594 4580.480469 L 4578.210938 4584.179688 L 4576.378906 4587.660156 L 4573.808594 4590.789062 L 787.546875 804.519531 L 790.109375 801.390625 L 791.941406 797.910156 L 793.039062 794.199219 L 793.40625 790.390625 L 793.039062 786.570312 L 791.941406 782.859375 L 790.109375 779.378906 L 787.546875 776.238281 "/>
</g>
</g>
<g clip-path="url(#clip-2)">
<g clip-path="url(#clip-3)">
<path fill-rule="evenodd" fill="rgb(61.914062%, 27.43988%, 46.263123%)" fill-opacity="1" d="M 1853.800781 1098.078125 L 5640.058594 4884.351562 L 5458.421875 4868.898438 L 1672.148438 1082.628906 L 1853.800781 1098.078125 "/>
</g>
</g>
<g clip-path="url(#clip-4)">
<g clip-path="url(#clip-5)">
<path fill-rule="evenodd" fill="rgb(61.914062%, 27.43988%, 46.263123%)" fill-opacity="1" d="M 1811.21875 1134.570312 L 5597.488281 4920.851562 L 5504.730469 5000.351562 L 1718.460938 1214.070312 L 1811.21875 1134.570312 "/>
</g>
</g>
<g clip-path="url(#clip-6)">
<g clip-path="url(#clip-7)">
<path fill-rule="evenodd" fill="rgb(61.914062%, 27.43988%, 46.263123%)" fill-opacity="1" d="M 1718.460938 1214.070312 L 5504.730469 5000.351562 L 5327.878906 4964.851562 L 1541.609375 1178.578125 L 1718.460938 1214.070312 "/>
</g>
</g>
<g clip-path="url(#clip-8)">
<g clip-path="url(#clip-9)">
<path fill-rule="evenodd" fill="rgb(61.914062%, 27.43988%, 46.263123%)" fill-opacity="1" d="M 787.546875 804.519531 L 4573.808594 4590.789062 L 4570.679688 4593.351562 L 4567.199219 4595.179688 L 4563.5 4596.28125 L 4559.679688 4596.648438 L 4555.859375 4596.28125 L 4552.148438 4595.179688 L 4548.679688 4593.351562 L 4545.539062 4590.789062 L 759.277344 804.519531 L 762.410156 807.078125 L 765.886719 808.910156 L 769.59375 810.011719 L 773.410156 810.371094 L 777.230469 810.011719 L 780.9375 808.910156 L 784.414062 807.078125 L 787.546875 804.519531 "/>
</g>
</g>
<g clip-path="url(#clip-10)">
<g clip-path="url(#clip-11)">
<path fill-rule="evenodd" fill="rgb(61.914062%, 27.43988%, 46.263123%)" fill-opacity="1" d="M 911.09375 683.640625 L 4697.359375 4469.910156 L 4697.359375 4527.910156 L 911.09375 741.640625 L 911.09375 683.640625 "/>
</g>
</g>
<g clip-path="url(#clip-12)">
<g clip-path="url(#clip-13)">
<path fill-rule="evenodd" fill="rgb(61.914062%, 27.43988%, 46.263123%)" fill-opacity="1" d="M 1960.820312 1006.351562 L 5747.089844 4792.621094 L 5640.058594 4884.351562 L 1853.800781 1098.078125 L 1960.820312 1006.351562 "/>
</g>
</g>
<g clip-path="url(#clip-14)">
<g clip-path="url(#clip-15)">
<path fill-rule="evenodd" fill="rgb(61.914062%, 27.43988%, 46.263123%)" fill-opacity="1" d="M 911.09375 741.640625 L 4697.359375 4527.910156 L 4696.960938 4531.941406 L 4695.789062 4535.691406 L 4693.949219 4539.089844 L 4691.5 4542.050781 L 4688.550781 4544.488281 L 4685.148438 4546.328125 L 4681.398438 4547.5 L 4677.371094 4547.910156 L 891.097656 761.628906 L 895.128906 761.230469 L 898.882812 760.058594 L 902.28125 758.21875 L 905.234375 755.78125 L 907.679688 752.820312 L 909.523438 749.421875 L 910.6875 745.671875 L 911.09375 741.640625 "/>
</g>
</g>
<g clip-path="url(#clip-16)">
<g clip-path="url(#clip-17)">
<path fill-rule="evenodd" fill="rgb(61.914062%, 27.43988%, 46.263123%)" fill-opacity="1" d="M 724.660156 928.070312 L 4510.929688 4714.339844 L 4452.929688 4714.339844 L 666.660156 928.070312 L 724.660156 928.070312 "/>
</g>
</g>
<g clip-path="url(#clip-18)">
<g clip-path="url(#clip-19)">
<path fill-rule="evenodd" fill="rgb(61.914062%, 27.43988%, 46.263123%)" fill-opacity="1" d="M 891.097656 761.628906 L 4677.371094 4547.910156 L 4673.339844 4547.5 L 4669.589844 4546.328125 L 4666.191406 4544.488281 L 4663.230469 4542.050781 L 876.960938 755.78125 L 879.921875 758.21875 L 883.320312 760.058594 L 887.070312 761.230469 L 891.097656 761.628906 "/>
</g>
</g>
<g clip-path="url(#clip-20)">
<g clip-path="url(#clip-21)">
<path fill-rule="evenodd" fill="rgb(61.914062%, 27.43988%, 46.263123%)" fill-opacity="1" d="M 905.234375 669.5 L 4691.5 4455.769531 L 4693.949219 4458.730469 L 4695.789062 4462.128906 L 4696.960938 4465.878906 L 4697.359375 4469.910156 L 911.09375 683.640625 L 910.6875 679.609375 L 909.523438 675.859375 L 907.679688 672.460938 L 905.234375 669.5 "/>
</g>
</g>
<g clip-path="url(#clip-22)">
<g clip-path="url(#clip-23)">
<path fill-rule="evenodd" fill="rgb(61.914062%, 27.43988%, 46.263123%)" fill-opacity="1" d="M 989.039062 810.128906 L 4775.308594 4596.398438 L 4779.890625 4601.210938 L 4784.25 4606.238281 L 4788.359375 4611.46875 L 4792.21875 4616.898438 L 4795.820312 4622.519531 L 4799.160156 4628.320312 L 4802.21875 4634.289062 L 4804.988281 4640.429688 L 4807.46875 4646.71875 L 4809.648438 4653.160156 L 4811.519531 4659.730469 L 4813.058594 4666.429688 L 4814.28125 4673.25 L 4815.160156 4680.179688 L 4815.699219 4687.21875 L 4815.878906 4694.351562 L 1029.609375 908.070312 L 1029.429688 900.949219 L 1028.890625 893.910156 L 1028.019531 886.980469 L 1026.800781 880.160156 L 1025.25 873.460938 L 1023.378906 866.890625 L 1021.210938 860.449219 L 1018.71875 854.160156 L 1015.949219 848.019531 L 1012.890625 842.050781 L 1009.558594 836.25 L 1005.949219 830.628906 L 1002.089844 825.199219 L 997.980469 819.960938 L 993.625 814.941406 L 989.039062 810.128906 "/>
</g>
</g>
<g clip-path="url(#clip-24)">
<g clip-path="url(#clip-25)">
<path fill-rule="evenodd" fill="rgb(61.914062%, 27.43988%, 46.263123%)" fill-opacity="1" d="M 738.800781 893.941406 L 4525.070312 4680.210938 L 4527.511719 4683.160156 L 4529.351562 4686.558594 L 4530.519531 4690.308594 L 4530.929688 4694.351562 L 744.65625 908.070312 L 744.253906 904.039062 L 743.085938 900.289062 L 741.242188 896.890625 L 738.800781 893.941406 "/>
</g>
</g>
<g clip-path="url(#clip-26)">
<g clip-path="url(#clip-27)">
<path fill-rule="evenodd" fill="rgb(61.914062%, 27.43988%, 46.263123%)" fill-opacity="1" d="M 1063.929688 763.519531 L 4850.199219 4549.789062 L 4809.191406 4590.800781 L 1022.921875 804.53125 L 1063.929688 763.519531 "/>
</g>
</g>
<g clip-path="url(#clip-28)">
<g clip-path="url(#clip-29)">
<path fill-rule="evenodd" fill="rgb(61.914062%, 27.43988%, 46.263123%)" fill-opacity="1" d="M 898.671875 1892.410156 L 4684.941406 5678.679688 L 4684.941406 5680.03125 L 898.671875 1893.761719 L 898.671875 1892.410156 "/>
</g>
</g>
<g clip-path="url(#clip-30)">
<g clip-path="url(#clip-31)">
<path fill-rule="evenodd" fill="rgb(61.914062%, 27.43988%, 46.263123%)" fill-opacity="1" d="M 744.65625 908.070312 L 4530.929688 4694.351562 L 4530.519531 4698.371094 L 4529.351562 4702.128906 L 4527.511719 4705.519531 L 4525.070312 4708.480469 L 4522.109375 4710.921875 L 4518.710938 4712.769531 L 4514.960938 4713.941406 L 4510.929688 4714.339844 L 724.660156 928.070312 L 728.691406 927.671875 L 732.445312 926.5 L 735.84375 924.648438 L 738.800781 922.210938 L 741.242188 919.25 L 743.085938 915.851562 L 744.253906 912.101562 L 744.65625 908.070312 "/>
</g>
</g>
<g clip-path="url(#clip-32)">
<g clip-path="url(#clip-33)">
<path fill-rule="evenodd" fill="rgb(61.914062%, 27.43988%, 46.263123%)" fill-opacity="1" d="M 1029.609375 908.070312 L 4815.878906 4694.351562 L 4815.699219 4701.46875 L 4815.160156 4708.511719 L 4814.28125 4715.441406 L 4813.058594 4722.261719 L 4811.519531 4728.960938 L 4809.648438 4735.539062 L 4807.46875 4741.96875 L 4804.988281 4748.261719 L 4802.21875 4754.398438 L 4799.160156 4760.371094 L 4795.820312 4766.171875 L 4792.21875 4771.789062 L 4788.359375 4777.21875 L 4784.25 4782.449219 L 4779.890625 4787.480469 L 4775.308594 4792.289062 L 989.039062 1006.019531 L 993.625 1001.210938 L 997.980469 996.179688 L 1002.089844 990.949219 L 1005.949219 985.519531 L 1009.558594 979.898438 L 1012.890625 974.101562 L 1015.949219 968.128906 L 1018.71875 961.988281 L 1021.210938 955.699219 L 1023.378906 949.261719 L 1025.25 942.691406 L 1026.800781 935.988281 L 1028.019531 929.171875 L 1028.890625 922.238281 L 1029.429688 915.199219 L 1029.609375 908.070312 "/>
</g>
</g>
<g clip-path="url(#clip-34)">
<g clip-path="url(#clip-35)">
<path fill-rule="evenodd" fill="rgb(61.914062%, 27.43988%, 46.263123%)" fill-opacity="1" d="M 1115.53125 928.070312 L 4901.789062 4714.339844 L 4843.789062 4714.339844 L 1057.53125 928.070312 L 1115.53125 928.070312 "/>
</g>
</g>
<g clip-path="url(#clip-36)">
<g clip-path="url(#clip-37)">
<path fill-rule="evenodd" fill="rgb(61.914062%, 27.43988%, 46.263123%)" fill-opacity="1" d="M 666.660156 928.070312 L 4452.929688 4714.339844 L 4448.898438 4713.941406 L 4445.148438 4712.769531 L 4441.75 4710.921875 L 4438.789062 4708.480469 L 652.523438 922.210938 L 655.484375 924.648438 L 658.882812 926.5 L 662.632812 927.671875 L 666.660156 928.070312 "/>
</g>
</g>
<g clip-path="url(#clip-38)">
<g clip-path="url(#clip-39)">
<path fill-rule="evenodd" fill="rgb(61.914062%, 27.43988%, 46.263123%)" fill-opacity="1" d="M 898.671875 1934.050781 L 4684.941406 5720.320312 L 4684.941406 5755.519531 L 898.671875 1969.25 L 898.671875 1934.050781 "/>
</g>
</g>
<g clip-path="url(#clip-40)">
<g clip-path="url(#clip-41)">
<path fill-rule="evenodd" fill="rgb(61.914062%, 27.43988%, 46.263123%)" fill-opacity="1" d="M 787.546875 1039.890625 L 4573.808594 4826.160156 L 4532.800781 4867.179688 L 746.535156 1080.910156 L 787.546875 1039.890625 "/>
</g>
</g>
<g clip-path="url(#clip-42)">
<g clip-path="url(#clip-43)">
<path fill-rule="evenodd" fill="rgb(61.914062%, 27.43988%, 46.263123%)" fill-opacity="1" d="M 2080.191406 1286.679688 L 5866.460938 5072.949219 L 5554.390625 5010.308594 L 1768.121094 1224.039062 L 2080.191406 1286.679688 "/>
</g>
</g>
<g clip-path="url(#clip-44)">
<g clip-path="url(#clip-45)">
<path fill-rule="evenodd" fill="rgb(61.914062%, 27.43988%, 46.263123%)" fill-opacity="1" d="M 1129.671875 893.941406 L 4915.929688 4680.210938 L 4918.378906 4683.160156 L 4920.21875 4686.558594 L 4921.390625 4690.308594 L 4921.789062 4694.351562 L 1135.519531 908.070312 L 1135.121094 904.039062 L 1133.949219 900.289062 L 1132.109375 896.890625 L 1129.671875 893.941406 "/>
</g>
</g>
<g clip-path="url(#clip-46)">
<g clip-path="url(#clip-47)">
<path fill-rule="evenodd" fill="rgb(61.914062%, 27.43988%, 46.263123%)" fill-opacity="1" d="M 989.039062 1006.019531 L 4775.308594 4792.289062 L 4770.5 4796.878906 L 4765.46875 4801.230469 L 4760.238281 4805.339844 L 4754.808594 4809.199219 L 4749.191406 4812.808594 L 4743.390625 4816.140625 L 4737.410156 4819.199219 L 4731.28125 4821.96875 L 4724.988281 4824.449219 L 4718.550781 4826.628906 L 4711.980469 4828.5 L 4705.28125 4830.050781 L 4698.460938 4831.261719 L 4691.519531 4832.148438 L 4684.488281 4832.679688 L 4677.359375 4832.859375 L 891.09375 1046.589844 L 898.222656 1046.410156 L 905.257812 1045.871094 L 912.1875 1044.988281 L 919.007812 1043.78125 L 925.714844 1042.230469 L 932.285156 1040.359375 L 938.722656 1038.179688 L 945.011719 1035.699219 L 951.144531 1032.929688 L 957.117188 1029.871094 L 962.921875 1026.539062 L 968.539062 1022.929688 L 973.972656 1019.070312 L 979.203125 1014.960938 L 984.230469 1010.609375 L 989.039062 1006.019531 "/>
</g>
</g>
<g clip-path="url(#clip-48)">
<g clip-path="url(#clip-49)">
<path fill-rule="evenodd" fill="rgb(61.914062%, 27.43988%, 46.263123%)" fill-opacity="1" d="M 1063.929688 735.238281 L 4850.199219 4521.511719 L 4852.761719 4524.640625 L 4854.589844 4528.121094 L 4855.691406 4531.828125 L 4856.050781 4535.648438 L 4855.691406 4539.460938 L 4854.589844 4543.171875 L 4852.761719 4546.648438 L 4850.199219 4549.789062 L 1063.929688 763.519531 L 1066.5 760.378906 L 1068.320312 756.898438 L 1069.421875 753.191406 L 1069.789062 749.371094 L 1069.421875 745.558594 L 1068.320312 741.851562 L 1066.5 738.371094 L 1063.929688 735.238281 "/>
</g>
</g>
<g clip-path="url(#clip-50)">
<g clip-path="url(#clip-51)">
<path fill-rule="evenodd" fill="rgb(61.914062%, 27.43988%, 46.263123%)" fill-opacity="1" d="M 1022.921875 804.53125 L 4809.191406 4590.800781 L 4806.050781 4593.359375 L 4802.578125 4595.191406 L 4798.871094 4596.289062 L 4795.050781 4596.648438 L 4791.230469 4596.289062 L 4787.53125 4595.191406 L 4784.050781 4593.359375 L 4780.910156 4590.800781 L 994.644531 804.53125 L 997.785156 807.089844 L 1001.261719 808.921875 L 1004.960938 810.019531 L 1008.78125 810.378906 L 1012.601562 810.019531 L 1016.308594 808.921875 L 1019.789062 807.089844 L 1022.921875 804.53125 "/>
</g>
</g>
<g clip-path="url(#clip-52)">
<g clip-path="url(#clip-53)">
<path fill-rule="evenodd" fill="rgb(61.914062%, 27.43988%, 46.263123%)" fill-opacity="1" d="M 891.09375 1046.589844 L 4677.359375 4832.859375 L 4670.238281 4832.679688 L 4663.199219 4832.148438 L 4656.269531 4831.269531 L 4649.449219 4830.050781 L 4642.75 4828.5 L 4636.171875 4826.628906 L 4629.738281 4824.460938 L 4623.449219 4821.980469 L 4617.308594 4819.199219 L 4611.339844 4816.140625 L 4605.539062 4812.808594 L 4599.921875 4809.199219 L 4594.488281 4805.339844 L 4589.261719 4801.230469 L 4584.230469 4796.878906 L 4579.421875 4792.289062 L 793.148438 1006.019531 L 797.960938 1010.609375 L 802.988281 1014.960938 L 808.222656 1019.070312 L 813.648438 1022.929688 L 819.273438 1026.539062 L 825.070312 1029.871094 L 831.042969 1032.929688 L 837.179688 1035.699219 L 843.472656 1038.191406 L 849.90625 1040.359375 L 856.480469 1042.230469 L 863.179688 1043.78125 L 870.003906 1045 L 876.933594 1045.871094 L 883.96875 1046.410156 L 891.09375 1046.589844 "/>
</g>
</g>
<g clip-path="url(#clip-54)">
<g clip-path="url(#clip-55)">
<path fill-rule="evenodd" fill="rgb(61.914062%, 27.43988%, 46.263123%)" fill-opacity="1" d="M 2353.328125 1006.351562 L 6139.601562 4792.621094 L 6018.808594 4916.578125 L 2232.550781 1130.308594 L 2353.328125 1006.351562 "/>
</g>
</g>
<g clip-path="url(#clip-56)">
<g clip-path="url(#clip-57)">
<path fill-rule="evenodd" fill="rgb(61.914062%, 27.43988%, 46.263123%)" fill-opacity="1" d="M 2232.550781 1130.308594 L 6018.808594 4916.578125 L 5695.808594 4889.101562 L 1909.550781 1102.828125 L 2232.550781 1130.308594 "/>
</g>
</g>
<g clip-path="url(#clip-58)">
<g clip-path="url(#clip-59)">
<path fill-rule="evenodd" fill="rgb(61.914062%, 27.43988%, 46.263123%)" fill-opacity="1" d="M 2196.449219 1167.351562 L 5982.71875 4953.621094 L 5866.460938 5072.949219 L 2080.191406 1286.679688 L 2196.449219 1167.351562 "/>
</g>
</g>
<g clip-path="url(#clip-60)">
<g clip-path="url(#clip-61)">
<path fill-rule="evenodd" fill="rgb(61.914062%, 27.43988%, 46.263123%)" fill-opacity="1" d="M 1135.519531 908.070312 L 4921.789062 4694.351562 L 4921.390625 4698.371094 L 4920.21875 4702.128906 L 4918.378906 4705.519531 L 4915.929688 4708.480469 L 4912.980469 4710.921875 L 4909.578125 4712.769531 L 4905.828125 4713.941406 L 4901.789062 4714.339844 L 1115.53125 928.070312 L 1119.558594 927.671875 L 1123.308594 926.5 L 1126.710938 924.648438 L 1129.671875 922.210938 L 1132.109375 919.25 L 1133.949219 915.851562 L 1135.121094 912.101562 L 1135.519531 908.070312 "/>
</g>
</g>
<g clip-path="url(#clip-62)">
<g clip-path="url(#clip-63)">
<path fill-rule="evenodd" fill="rgb(61.914062%, 27.43988%, 46.263123%)" fill-opacity="1" d="M 2047.078125 1320.660156 L 5833.351562 5106.929688 L 5825.570312 5114.910156 L 2039.308594 1328.628906 L 2047.078125 1320.660156 "/>
</g>
</g>
<g clip-path="url(#clip-64)">
<g clip-path="url(#clip-65)">
<path fill-rule="evenodd" fill="rgb(61.914062%, 27.43988%, 46.263123%)" fill-opacity="1" d="M 2039.308594 1328.628906 L 5825.570312 5114.910156 L 5825.300781 5115.148438 L 5825.03125 5115.410156 L 5824.761719 5115.660156 L 5824.5 5115.929688 L 5823.75 5116.738281 L 5823.511719 5117.03125 L 2037.238281 1330.761719 L 2037.480469 1330.46875 L 2037.730469 1330.199219 L 2037.980469 1329.921875 L 2038.238281 1329.660156 L 2038.5 1329.390625 L 2038.761719 1329.140625 L 2039.03125 1328.878906 L 2039.308594 1328.628906 "/>
</g>
</g>
<g clip-path="url(#clip-66)">
<g clip-path="url(#clip-67)">
<path fill-rule="evenodd" fill="rgb(61.914062%, 27.43988%, 46.263123%)" fill-opacity="1" d="M 1680.058594 1246.988281 L 5466.328125 5033.261719 L 5325.78125 5153.730469 L 1539.519531 1367.460938 L 1680.058594 1246.988281 "/>
</g>
</g>
<g clip-path="url(#clip-68)">
<g clip-path="url(#clip-69)">
<path fill-rule="evenodd" fill="rgb(61.914062%, 27.43988%, 46.263123%)" fill-opacity="1" d="M 787.546875 1011.621094 L 4573.808594 4797.890625 L 4576.378906 4801.03125 L 4578.210938 4804.5 L 4579.308594 4808.210938 L 4579.671875 4812.03125 L 4579.308594 4815.851562 L 4578.210938 4819.550781 L 4576.378906 4823.03125 L 4573.808594 4826.160156 L 787.546875 1039.890625 L 790.109375 1036.761719 L 791.941406 1033.28125 L 793.039062 1029.570312 L 793.40625 1025.761719 L 793.039062 1021.941406 L 791.941406 1018.230469 L 790.109375 1014.761719 L 787.546875 1011.621094 "/>
</g>
</g>
<g clip-path="url(#clip-70)">
<g clip-path="url(#clip-71)">
<path fill-rule="evenodd" fill="rgb(61.914062%, 27.43988%, 46.263123%)" fill-opacity="1" d="M 1083.441406 1062.570312 L 4869.710938 4848.839844 L 4872.269531 4851.96875 L 4874.101562 4855.449219 L 4875.199219 4859.160156 L 4875.558594 4862.980469 L 4875.199219 4866.789062 L 4874.101562 4870.5 L 4872.269531 4873.980469 L 4869.710938 4877.109375 L 1083.441406 1090.839844 L 1086 1087.699219 L 1087.828125 1084.230469 L 1088.929688 1080.519531 L 1089.300781 1076.699219 L 1088.929688 1072.890625 L 1087.828125 1069.179688 L 1086 1065.699219 L 1083.441406 1062.570312 "/>
</g>
</g>
<g clip-path="url(#clip-72)">
<g clip-path="url(#clip-73)">
<path fill-rule="evenodd" fill="rgb(61.914062%, 27.43988%, 46.263123%)" fill-opacity="1" d="M 746.535156 1080.910156 L 4532.800781 4867.179688 L 4529.671875 4869.738281 L 4526.191406 4871.570312 L 4522.480469 4872.671875 L 4518.660156 4873.03125 L 4514.851562 4872.671875 L 4511.140625 4871.570312 L 4507.660156 4869.738281 L 4504.53125 4867.179688 L 718.265625 1080.910156 L 721.398438 1083.46875 L 724.875 1085.300781 L 728.582031 1086.398438 L 732.398438 1086.761719 L 736.21875 1086.398438 L 739.925781 1085.300781 L 743.402344 1083.46875 L 746.535156 1080.910156 "/>
</g>
</g>
<g clip-path="url(#clip-74)">
<g clip-path="url(#clip-75)">
<path fill-rule="evenodd" fill="rgb(61.914062%, 27.43988%, 46.263123%)" fill-opacity="1" d="M 1083.441406 1090.839844 L 4869.710938 4877.109375 L 4866.578125 4879.679688 L 4863.101562 4881.5 L 4859.390625 4882.601562 L 4855.570312 4882.96875 L 4851.761719 4882.601562 L 4848.050781 4881.5 L 4844.570312 4879.679688 L 4841.441406 4877.109375 L 1055.171875 1090.839844 L 1058.308594 1093.410156 L 1061.78125 1095.230469 L 1065.488281 1096.328125 L 1069.308594 1096.699219 L 1073.128906 1096.328125 L 1076.828125 1095.230469 L 1080.308594 1093.410156 L 1083.441406 1090.839844 "/>
</g>
</g>
<g clip-path="url(#clip-76)">
<g clip-path="url(#clip-77)">
<path fill-rule="evenodd" fill="rgb(61.914062%, 27.43988%, 46.263123%)" fill-opacity="1" d="M 911.089844 1074.5 L 4697.359375 4860.78125 L 4697.359375 4918.78125 L 911.089844 1132.511719 L 911.089844 1074.5 "/>
</g>
</g>
<g clip-path="url(#clip-78)">
<g clip-path="url(#clip-79)">
<path fill-rule="evenodd" fill="rgb(61.914062%, 27.43988%, 46.263123%)" fill-opacity="1" d="M 911.089844 1132.511719 L 4697.359375 4918.78125 L 4696.949219 4922.808594 L 4695.789062 4926.558594 L 4693.941406 4929.960938 L 4691.5 4932.921875 L 4688.539062 4935.359375 L 4685.148438 4937.199219 L 4681.390625 4938.371094 L 4677.359375 4938.78125 L 891.09375 1152.5 L 895.125 1152.101562 L 898.878906 1150.929688 L 902.273438 1149.089844 L 905.230469 1146.648438 L 907.675781 1143.691406 L 909.519531 1140.289062 L 910.683594 1136.539062 L 911.089844 1132.511719 "/>
</g>
</g>
<g clip-path="url(#clip-80)">
<g clip-path="url(#clip-81)">
<path fill-rule="evenodd" fill="rgb(61.914062%, 27.43988%, 46.263123%)" fill-opacity="1" d="M 891.09375 1152.5 L 4677.359375 4938.78125 L 4673.328125 4938.371094 L 4669.578125 4937.199219 L 4666.179688 4935.359375 L 4663.21875 4932.921875 L 876.957031 1146.648438 L 879.917969 1149.089844 L 883.316406 1150.929688 L 887.066406 1152.101562 L 891.09375 1152.5 "/>
</g>
</g>
<g clip-path="url(#clip-82)">
<g clip-path="url(#clip-83)">
<path fill-rule="evenodd" fill="rgb(61.914062%, 27.43988%, 46.263123%)" fill-opacity="1" d="M 905.230469 1060.371094 L 4691.5 4846.640625 L 4693.941406 4849.601562 L 4695.789062 4852.988281 L 4696.949219 4856.75 L 4697.359375 4860.78125 L 911.089844 1074.5 L 910.683594 1070.480469 L 909.519531 1066.71875 L 907.675781 1063.328125 L 905.230469 1060.371094 "/>
</g>
</g>
<g clip-path="url(#clip-84)">
<g clip-path="url(#clip-85)">
<path fill-rule="evenodd" fill="rgb(61.914062%, 27.43988%, 46.263123%)" fill-opacity="1" d="M 1057.53125 928.070312 L 4843.789062 4714.339844 L 4839.769531 4713.941406 L 4836.019531 4712.769531 L 4832.621094 4710.921875 L 4829.660156 4708.480469 L 1043.390625 922.210938 L 1046.351562 924.648438 L 1049.75 926.5 L 1053.5 927.671875 L 1057.53125 928.070312 "/>
</g>
</g>
<g clip-path="url(#clip-86)">
<g clip-path="url(#clip-87)">
<path fill-rule="evenodd" fill="rgb(61.914062%, 27.43988%, 46.263123%)" fill-opacity="1" d="M 1312.648438 1561.910156 L 5098.921875 5348.179688 L 4897.679688 5281.089844 L 1111.410156 1494.820312 L 1312.648438 1561.910156 "/>
</g>
</g>
<g clip-path="url(#clip-88)">
<g clip-path="url(#clip-89)">
<path fill-rule="evenodd" fill="rgb(61.914062%, 27.43988%, 46.263123%)" fill-opacity="1" d="M 1539.519531 1367.460938 L 5325.78125 5153.730469 L 5141.460938 5101.890625 L 1355.191406 1315.621094 L 1539.519531 1367.460938 "/>
</g>
</g>
<g clip-path="url(#clip-90)">
<g clip-path="url(#clip-91)">
<path fill-rule="evenodd" fill="rgb(61.914062%, 27.43988%, 46.263123%)" fill-opacity="1" d="M 1503.089844 1398.671875 L 5289.359375 5184.941406 L 5098.921875 5348.179688 L 1312.648438 1561.910156 L 1503.089844 1398.671875 "/>
</g>
</g>
<g clip-path="url(#clip-92)">
<g clip-path="url(#clip-93)">
<path fill-rule="evenodd" fill="rgb(61.914062%, 27.43988%, 46.263123%)" fill-opacity="1" d="M 1689.589844 1687.558594 L 5475.859375 5473.828125 L 5143.050781 5362.890625 L 1356.78125 1576.609375 L 1689.589844 1687.558594 "/>
</g>
</g>
<g clip-path="url(#clip-94)">
<g clip-path="url(#clip-95)">
<path fill-rule="evenodd" fill="rgb(61.914062%, 27.43988%, 46.263123%)" fill-opacity="1" d="M 1743.480469 1814.75 L 5529.75 5601.019531 L 4684.941406 5720.320312 L 898.671875 1934.050781 L 1743.480469 1814.75 "/>
</g>
</g>
<g clip-path="url(#clip-96)">
<g clip-path="url(#clip-97)">
<path fill-rule="evenodd" fill="rgb(61.914062%, 27.43988%, 46.263123%)" fill-opacity="1" d="M 1820.621094 1912.148438 L 5606.890625 5698.421875 L 5606.890625 5718.410156 L 1820.621094 1932.140625 L 1820.621094 1912.148438 "/>
</g>
</g>
<g clip-path="url(#clip-98)">
<g clip-path="url(#clip-99)">
<path fill-rule="evenodd" fill="rgb(61.914062%, 27.43988%, 46.263123%)" fill-opacity="1" d="M 1820.621094 1932.140625 L 5606.890625 5718.410156 L 5586.890625 5718.410156 L 1800.628906 1932.140625 L 1820.621094 1932.140625 "/>
</g>
</g>
<g clip-path="url(#clip-100)">
<g clip-path="url(#clip-101)">
<path fill-rule="evenodd" fill="rgb(61.914062%, 27.43988%, 46.263123%)" fill-opacity="1" d="M 1529.171875 2296.367188 L 5315.429688 6082.640625 L 4553.140625 6082.640625 L 766.875 2296.367188 L 1529.171875 2296.367188 "/>
</g>
</g>
<g clip-path="url(#clip-102)">
<g clip-path="url(#clip-103)">
<path fill-rule="evenodd" fill="rgb(61.914062%, 27.43988%, 46.263123%)" fill-opacity="1" d="M 1468.480469 1932.140625 L 5254.738281 5718.410156 L 5254.738281 5755.519531 L 1468.480469 1969.25 L 1468.480469 1932.140625 "/>
</g>
</g>
<g clip-path="url(#clip-104)">
<g clip-path="url(#clip-105)">
<path fill-rule="evenodd" fill="rgb(61.914062%, 27.43988%, 46.263123%)" fill-opacity="1" d="M 1902.109375 1469.441406 L 5688.378906 5255.710938 L 5371.929688 5166.710938 L 1585.671875 1380.441406 L 1902.109375 1469.441406 "/>
</g>
</g>
<g clip-path="url(#clip-106)">
<g clip-path="url(#clip-107)">
<path fill-rule="evenodd" fill="rgb(61.914062%, 27.43988%, 46.263123%)" fill-opacity="1" d="M 1760.660156 1796.011719 L 5546.929688 5582.28125 L 5546.070312 5598.710938 L 1759.808594 1812.441406 L 1760.660156 1796.011719 "/>
</g>
</g>
<g clip-path="url(#clip-108)">
<g clip-path="url(#clip-109)">
<path fill-rule="evenodd" fill="rgb(61.914062%, 27.43988%, 46.263123%)" fill-opacity="1" d="M 1842.28125 1530.851562 L 5628.550781 5317.121094 L 5475.859375 5473.828125 L 1689.589844 1687.558594 L 1842.28125 1530.851562 "/>
</g>
</g>
<g clip-path="url(#clip-110)">
<g clip-path="url(#clip-111)">
<path fill-rule="evenodd" fill="rgb(61.914062%, 27.43988%, 46.263123%)" fill-opacity="1" d="M 1759.808594 1812.441406 L 5546.070312 5598.710938 L 5529.75 5601.019531 L 1743.480469 1814.75 L 1759.808594 1812.441406 "/>
</g>
</g>
<g clip-path="url(#clip-112)">
<g clip-path="url(#clip-113)">
<path fill-rule="evenodd" fill="rgb(61.914062%, 27.43988%, 46.263123%)" fill-opacity="1" d="M 1800.628906 1932.140625 L 5586.890625 5718.410156 L 5254.738281 5718.410156 L 1468.480469 1932.140625 L 1800.628906 1932.140625 "/>
</g>
</g>
<g clip-path="url(#clip-114)">
<g clip-path="url(#clip-115)">
<path fill-rule="evenodd" fill="rgb(61.914062%, 27.43988%, 46.263123%)" fill-opacity="1" d="M 1529.171875 1969.25 L 5315.429688 5755.519531 L 5315.429688 6082.640625 L 1529.171875 2296.367188 L 1529.171875 1969.25 "/>
</g>
</g>
<g clip-path="url(#clip-116)">
<g clip-path="url(#clip-117)">
<path fill-rule="evenodd" fill="rgb(61.914062%, 27.43988%, 46.263123%)" fill-opacity="1" d="M 1837.621094 1966.789062 L 5623.890625 5753.058594 L 5623.890625 6082.640625 L 1837.621094 2296.367188 L 1837.621094 1966.789062 "/>
</g>
</g>
<g clip-path="url(#clip-118)">
<g clip-path="url(#clip-119)">
<path fill-rule="evenodd" fill="rgb(61.914062%, 27.43988%, 46.263123%)" fill-opacity="1" d="M 2037.238281 1330.761719 L 5823.511719 5117.03125 L 5688.378906 5255.710938 L 1902.109375 1469.441406 L 2037.238281 1330.761719 "/>
</g>
</g>
<g clip-path="url(#clip-120)">
<g clip-path="url(#clip-121)">
<path fill-rule="evenodd" fill="rgb(61.914062%, 27.43988%, 46.263123%)" fill-opacity="1" d="M 1767.808594 1657.300781 L 5554.070312 5443.570312 L 5546.929688 5582.28125 L 1760.660156 1796.011719 L 1767.808594 1657.300781 "/>
</g>
</g>
<g clip-path="url(#clip-122)">
<g clip-path="url(#clip-123)">
<path fill-rule="evenodd" fill="rgb(61.914062%, 27.43988%, 46.263123%)" fill-opacity="1" d="M 1870.398438 1501.980469 L 5656.671875 5288.261719 L 5656.089844 5288.851562 L 1869.828125 1502.570312 L 1870.398438 1501.980469 "/>
</g>
</g>
<g clip-path="url(#clip-124)">
<g clip-path="url(#clip-125)">
<path fill-rule="evenodd" fill="rgb(61.914062%, 27.43988%, 46.263123%)" fill-opacity="1" d="M 1869.828125 1502.570312 L 5656.089844 5288.851562 L 5630.671875 5314.941406 L 1844.398438 1528.671875 L 1869.828125 1502.570312 "/>
</g>
</g>
<g clip-path="url(#clip-126)">
<g clip-path="url(#clip-127)">
<path fill-rule="evenodd" fill="rgb(61.914062%, 27.43988%, 46.263123%)" fill-opacity="1" d="M 1844.398438 1528.671875 L 5630.671875 5314.941406 L 5630.390625 5315.191406 L 5630.109375 5315.449219 L 5629.570312 5315.988281 L 5629.308594 5316.261719 L 5629.050781 5316.539062 L 5628.789062 5316.828125 L 5628.550781 5317.121094 L 1842.28125 1530.851562 L 1842.53125 1530.558594 L 1842.78125 1530.269531 L 1843.039062 1529.988281 L 1843.300781 1529.71875 L 1843.570312 1529.441406 L 1843.851562 1529.179688 L 1844.121094 1528.921875 L 1844.398438 1528.671875 "/>
</g>
</g>
<g clip-path="url(#clip-128)">
<g clip-path="url(#clip-129)">
<path fill-rule="evenodd" fill="rgb(61.914062%, 27.43988%, 46.263123%)" fill-opacity="1" d="M 1549.160156 2336.359375 L 5335.429688 6122.628906 L 5331.398438 6122.21875 L 5327.648438 6121.058594 L 5324.25 6119.210938 L 5321.289062 6116.769531 L 1535.019531 2330.5 L 1537.980469 2332.941406 L 1541.378906 2334.785156 L 1545.128906 2335.953125 L 1549.160156 2336.359375 "/>
</g>
</g>
<g clip-path="url(#clip-130)">
<g clip-path="url(#clip-131)">
<path fill-rule="evenodd" fill="rgb(61.914062%, 27.43988%, 46.263123%)" fill-opacity="1" d="M 1820.621094 1601.019531 L 5606.890625 5387.289062 L 5606.890625 5698.421875 L 1820.621094 1912.148438 L 1820.621094 1601.019531 "/>
</g>
</g>
<g clip-path="url(#clip-132)">
<g clip-path="url(#clip-133)">
<path fill-rule="evenodd" fill="rgb(61.914062%, 27.43988%, 46.263123%)" fill-opacity="1" d="M 2032.558594 1392.699219 L 5818.828125 5178.96875 L 5818.828125 6082.640625 L 2032.558594 2296.367188 L 2032.558594 1392.699219 "/>
</g>
</g>
<g clip-path="url(#clip-134)">
<g clip-path="url(#clip-135)">
<path fill-rule="evenodd" fill="rgb(61.914062%, 27.43988%, 46.263123%)" fill-opacity="1" d="M 2338.398438 2302.222656 L 6124.660156 6088.5 L 6127.109375 6091.460938 L 6128.949219 6094.851562 L 6130.121094 6098.601562 L 6130.519531 6102.628906 L 2344.261719 2316.359375 L 2343.851562 2312.328125 L 2342.679688 2308.578125 L 2340.839844 2305.183594 L 2338.398438 2302.222656 "/>
</g>
</g>
<g clip-path="url(#clip-136)">
<g clip-path="url(#clip-137)">
<path fill-rule="evenodd" fill="rgb(61.914062%, 27.43988%, 46.263123%)" fill-opacity="1" d="M 2344.261719 2316.359375 L 6130.519531 6102.628906 L 6130.121094 6106.660156 L 6128.949219 6110.410156 L 6127.109375 6113.808594 L 6124.660156 6116.769531 L 6121.710938 6119.210938 L 6118.308594 6121.058594 L 6114.558594 6122.21875 L 6110.53125 6122.628906 L 2324.261719 2336.359375 L 2328.289062 2335.953125 L 2332.039062 2334.785156 L 2335.441406 2332.941406 L 2338.398438 2330.5 L 2340.839844 2327.539062 L 2342.679688 2324.140625 L 2343.851562 2320.390625 L 2344.261719 2316.359375 "/>
</g>
</g>
<g clip-path="url(#clip-138)">
<g clip-path="url(#clip-139)">
<path fill-rule="evenodd" fill="rgb(61.914062%, 27.43988%, 46.263123%)" fill-opacity="1" d="M 2324.261719 2336.359375 L 6110.53125 6122.628906 L 5335.429688 6122.628906 L 1549.160156 2336.359375 L 2324.261719 2336.359375 "/>
</g>
</g>
<g clip-path="url(#clip-140)">
<g clip-path="url(#clip-141)">
<path fill-rule="evenodd" fill="rgb(61.914062%, 27.43988%, 46.263123%)" fill-opacity="1" d="M 2032.558594 1392.699219 L 2032.558594 2296.367188 L 2324.261719 2296.367188 C 2335.300781 2296.367188 2344.261719 2305.324219 2344.261719 2316.359375 C 2344.261719 2327.402344 2335.300781 2336.359375 2324.261719 2336.359375 L 1549.160156 2336.359375 C 1538.121094 2336.359375 1529.171875 2327.402344 1529.171875 2316.359375 C 1529.171875 2305.324219 1538.121094 2296.367188 1549.160156 2296.367188 L 1569.160156 2296.367188 L 1569.160156 1966.789062 L 1837.621094 1966.789062 L 1837.621094 2296.367188 L 1877.609375 2296.367188 L 1877.609375 1551.71875 L 1898.410156 1530.378906 L 1921.761719 1506.421875 L 1923.039062 1505.101562 Z M 1672.148438 1082.628906 L 1775.921875 1006.351562 L 1960.820312 1006.351562 L 1853.800781 1098.078125 Z M 1623.238281 1118.578125 L 1811.21875 1134.570312 L 1718.460938 1214.070312 L 1541.609375 1178.578125 Z M 1498.210938 1210.488281 L 1680.058594 1246.988281 L 1539.519531 1367.460938 L 1355.191406 1315.621094 Z M 1314.398438 1345.609375 L 1503.089844 1398.671875 L 1312.648438 1561.910156 L 1111.410156 1494.820312 Z M 809.273438 1892.410156 L 898.671875 1892.410156 L 898.671875 1893.761719 L 1721.671875 1777.539062 L 1727.96875 1655.28125 L 1767.808594 1657.300781 L 1760.660156 1796.011719 L 1759.808594 1812.441406 L 1743.480469 1814.75 L 898.671875 1934.050781 L 898.671875 1969.25 L 1379.070312 1969.25 L 1379.070312 1892.410156 L 1457.628906 1892.410156 L 1457.628906 1892.148438 L 1780.628906 1892.148438 L 1780.628906 1601.019531 L 1820.621094 1601.019531 L 1820.621094 1932.140625 L 1468.480469 1932.140625 L 1468.480469 1969.25 L 1529.171875 1969.25 L 1529.171875 2296.367188 L 766.875 2296.367188 L 766.875 1969.25 L 809.273438 1969.25 Z M 2022.109375 1006.351562 L 2353.328125 1006.351562 L 2232.550781 1130.308594 L 1909.550781 1102.828125 Z M 1866.980469 1139.320312 L 2196.449219 1167.351562 L 2080.191406 1286.679688 L 1768.121094 1224.039062 Z M 1729.71875 1256.960938 L 2047.078125 1320.660156 L 2039.308594 1328.628906 C 2038.570312 1329.289062 2037.878906 1330 2037.238281 1330.761719 L 1902.109375 1469.441406 L 1585.671875 1380.441406 Z M 1549.238281 1411.660156 L 1870.398438 1501.980469 L 1869.828125 1502.570312 L 1844.398438 1528.671875 C 1843.648438 1529.328125 1842.929688 1530.070312 1842.28125 1530.851562 L 1689.589844 1687.558594 L 1356.78125 1576.609375 Z M 718.265625 735.238281 C 726.066406 727.429688 738.730469 727.429688 746.535156 735.238281 L 787.546875 776.238281 C 795.359375 784.058594 795.359375 796.71875 787.546875 804.519531 C 779.742188 812.328125 767.078125 812.328125 759.277344 804.519531 L 718.265625 763.519531 C 710.453125 755.699219 710.453125 743.039062 718.265625 735.238281 Z M 911.09375 683.640625 L 911.09375 741.640625 C 911.09375 752.679688 902.140625 761.628906 891.097656 761.628906 C 880.058594 761.628906 871.105469 752.679688 871.105469 741.640625 L 871.105469 683.640625 C 871.105469 672.601562 880.058594 663.640625 891.097656 663.640625 C 902.140625 663.640625 911.09375 672.601562 911.09375 683.640625 Z M 646.671875 908.070312 C 646.671875 897.03125 655.621094 888.078125 666.660156 888.078125 L 724.660156 888.078125 C 735.703125 888.078125 744.65625 897.03125 744.65625 908.070312 C 744.65625 919.109375 735.703125 928.070312 724.660156 928.070312 L 666.660156 928.070312 C 655.621094 928.070312 646.671875 919.109375 646.671875 908.070312 Z M 989.039062 810.128906 C 1014.109375 835.191406 1029.609375 869.828125 1029.609375 908.070312 C 1029.609375 946.320312 1014.109375 980.949219 989.039062 1006.019531 C 963.976562 1031.078125 929.34375 1046.589844 891.09375 1046.589844 C 852.851562 1046.589844 818.21875 1031.078125 793.148438 1006.019531 C 768.085938 980.949219 752.582031 946.320312 752.582031 908.070312 C 752.582031 869.828125 768.085938 835.191406 793.148438 810.128906 C 818.21875 785.058594 852.851562 769.558594 891.09375 769.558594 C 929.34375 769.558594 963.976562 785.058594 989.039062 810.128906 Z M 787.546875 1039.890625 L 746.535156 1080.910156 C 738.730469 1088.710938 726.066406 1088.710938 718.265625 1080.910156 C 710.453125 1073.101562 710.453125 1060.441406 718.265625 1052.628906 L 759.277344 1011.621094 C 767.078125 1003.820312 779.742188 1003.820312 787.546875 1011.621094 C 795.359375 1019.429688 795.359375 1032.089844 787.546875 1039.890625 Z M 1040.191406 1019.308594 L 1083.441406 1062.570312 C 1091.25 1070.371094 1091.25 1083.039062 1083.441406 1090.839844 C 1075.640625 1098.648438 1062.980469 1098.648438 1055.171875 1090.839844 L 1011.921875 1047.589844 C 1004.109375 1039.78125 1004.109375 1027.109375 1011.921875 1019.308594 C 1019.71875 1011.5 1032.390625 1011.5 1040.191406 1019.308594 Z M 911.089844 1074.5 L 911.089844 1132.511719 C 911.089844 1143.550781 902.136719 1152.5 891.09375 1152.5 C 880.054688 1152.5 871.101562 1143.550781 871.101562 1132.511719 L 871.101562 1074.5 C 871.101562 1063.460938 880.054688 1054.511719 891.09375 1054.511719 C 902.136719 1054.511719 911.089844 1063.460938 911.089844 1074.5 Z M 1135.519531 908.070312 C 1135.519531 919.109375 1126.570312 928.070312 1115.53125 928.070312 L 1057.53125 928.070312 C 1046.488281 928.070312 1037.539062 919.109375 1037.539062 908.070312 C 1037.539062 897.03125 1046.488281 888.078125 1057.53125 888.078125 L 1115.53125 888.078125 C 1126.570312 888.078125 1135.519531 897.03125 1135.519531 908.070312 Z M 1063.929688 735.238281 C 1071.738281 743.039062 1071.738281 755.699219 1063.929688 763.519531 L 1022.921875 804.53125 C 1015.121094 812.328125 1002.449219 812.328125 994.644531 804.53125 C 986.839844 796.71875 986.839844 784.058594 994.644531 776.25 L 1035.660156 735.238281 C 1043.460938 727.429688 1056.128906 727.429688 1063.929688 735.238281 "/>
</g>
</g>
<path fill-rule="nonzero" fill="rgb(100%, 100%, 99.609375%)" fill-opacity="1" d="M 1549.160156 2296.363281 C 1538.121094 2296.363281 1529.171875 2305.320312 1529.171875 2316.359375 C 1529.171875 2327.398438 1538.121094 2336.359375 1549.160156 2336.359375 L 2324.261719 2336.359375 C 2335.300781 2336.359375 2344.261719 2327.398438 2344.261719 2316.359375 C 2344.261719 2305.320312 2335.300781 2296.363281 2324.261719 2296.363281 L 2032.558594 2296.363281 L 2032.558594 1392.699219 L 1923.039062 1505.101562 C 1922.628906 1505.558594 1922.210938 1506 1921.761719 1506.421875 L 1898.410156 1530.378906 L 1877.621094 1551.71875 L 1877.621094 2296.363281 L 1837.621094 2296.363281 L 1837.621094 1966.789062 L 1569.160156 1966.789062 L 1569.160156 2296.363281 Z M 809.269531 1892.410156 L 809.269531 1969.25 L 766.875 1969.25 L 766.875 2296.363281 L 1529.171875 2296.363281 L 1529.171875 1969.25 L 1468.480469 1969.25 L 1468.480469 1932.140625 L 1820.621094 1932.140625 L 1820.621094 1601.011719 L 1780.628906 1601.011719 L 1780.628906 1892.148438 L 1457.621094 1892.148438 L 1457.621094 1892.410156 L 1379.070312 1892.410156 L 1379.070312 1969.25 L 898.675781 1969.25 L 898.675781 1934.050781 L 1743.480469 1814.75 L 1759.808594 1812.441406 L 1760.660156 1796.011719 L 1767.808594 1657.300781 L 1727.96875 1655.269531 L 1721.671875 1777.539062 L 898.675781 1893.761719 L 898.675781 1892.410156 Z M 1853.789062 1098.078125 L 1960.820312 1006.351562 L 1775.921875 1006.351562 L 1672.148438 1082.628906 Z M 1909.550781 1102.828125 L 2232.550781 1130.308594 L 2353.328125 1006.351562 L 2022.109375 1006.351562 Z M 2047.078125 1320.660156 L 1729.730469 1256.960938 L 1585.660156 1380.441406 L 1902.109375 1469.441406 L 2037.238281 1330.75 C 2037.878906 1330 2038.570312 1329.289062 2039.308594 1328.640625 Z M 1866.980469 1139.320312 L 1768.121094 1224.039062 L 2080.191406 1286.679688 L 2196.449219 1167.351562 Z M 1541.609375 1178.578125 L 1718.460938 1214.078125 L 1811.21875 1134.570312 L 1623.238281 1118.578125 Z M 1355.191406 1315.621094 L 1539.519531 1367.460938 L 1680.058594 1246.988281 L 1498.210938 1210.488281 Z M 1312.660156 1561.898438 L 1503.089844 1398.671875 L 1314.398438 1345.609375 L 1111.410156 1494.820312 Z M 1356.78125 1576.621094 L 1689.601562 1687.550781 L 1842.28125 1530.851562 C 1842.929688 1530.070312 1843.648438 1529.328125 1844.398438 1528.671875 L 1869.828125 1502.570312 L 1870.398438 1501.980469 L 1549.238281 1411.660156 Z M 1313.050781 2142.753906 L 1482.441406 2142.753906 C 1493.480469 2142.753906 1502.429688 2151.710938 1502.429688 2162.746094 C 1502.429688 2173.789062 1493.480469 2182.746094 1482.441406 2182.746094 L 1313.050781 2182.746094 C 1302.011719 2182.746094 1293.058594 2173.789062 1293.058594 2162.746094 C 1293.058594 2151.710938 1302.011719 2142.753906 1313.050781 2142.753906 Z M 882.628906 2193.15625 L 882.628906 2239.628906 C 882.628906 2250.671875 873.675781 2259.621094 862.632812 2259.621094 C 851.59375 2259.621094 842.640625 2250.671875 842.640625 2239.628906 L 842.640625 2193.15625 L 796.171875 2193.15625 C 785.128906 2193.15625 776.175781 2184.203125 776.175781 2173.160156 C 776.175781 2162.125 785.128906 2153.167969 796.171875 2153.167969 L 842.640625 2153.167969 L 842.640625 2106.695312 C 842.640625 2095.652344 851.59375 2086.699219 862.632812 2086.699219 C 873.675781 2086.699219 882.628906 2095.652344 882.628906 2106.695312 L 882.628906 2153.167969 L 929.101562 2153.167969 C 940.140625 2153.167969 949.097656 2162.125 949.097656 2173.160156 C 949.097656 2184.203125 940.140625 2193.15625 929.101562 2193.15625 Z M 746.535156 735.238281 C 738.730469 727.429688 726.066406 727.429688 718.261719 735.238281 C 710.453125 743.039062 710.453125 755.710938 718.261719 763.511719 L 759.273438 804.519531 C 767.078125 812.328125 779.746094 812.328125 787.550781 804.519531 C 795.355469 796.71875 795.355469 784.050781 787.550781 776.238281 Z M 666.664062 888.078125 C 655.621094 888.078125 646.667969 897.03125 646.667969 908.070312 C 646.667969 919.109375 655.621094 928.070312 666.664062 928.070312 L 724.664062 928.070312 C 735.703125 928.070312 744.65625 919.109375 744.65625 908.070312 C 744.65625 897.03125 735.703125 888.078125 724.664062 888.078125 Z M 718.261719 1052.628906 C 710.453125 1060.441406 710.453125 1073.101562 718.261719 1080.910156 C 726.066406 1088.710938 738.730469 1088.710938 746.535156 1080.910156 L 787.550781 1039.898438 C 795.355469 1032.089844 795.355469 1019.429688 787.550781 1011.621094 C 779.746094 1003.808594 767.078125 1003.808594 759.273438 1011.621094 Z M 871.101562 1132.511719 C 871.101562 1143.550781 880.054688 1152.5 891.097656 1152.5 C 902.136719 1152.5 911.089844 1143.550781 911.089844 1132.511719 L 911.089844 1074.5 C 911.089844 1063.460938 902.136719 1054.511719 891.097656 1054.511719 C 880.054688 1054.511719 871.101562 1063.460938 871.101562 1074.5 Z M 1055.171875 1090.839844 C 1062.980469 1098.648438 1075.640625 1098.648438 1083.449219 1090.839844 C 1091.25 1083.039062 1091.25 1070.371094 1083.449219 1062.570312 L 1040.191406 1019.308594 C 1032.390625 1011.5 1019.71875 1011.5 1011.921875 1019.308594 C 1004.109375 1027.109375 1004.109375 1039.78125 1011.921875 1047.578125 Z M 1115.53125 928.070312 C 1126.570312 928.070312 1135.519531 919.109375 1135.519531 908.070312 C 1135.519531 897.03125 1126.570312 888.078125 1115.53125 888.078125 L 1057.53125 888.078125 C 1046.488281 888.078125 1037.53125 897.03125 1037.53125 908.070312 C 1037.53125 919.109375 1046.488281 928.070312 1057.53125 928.070312 Z M 1063.929688 763.511719 C 1071.738281 755.710938 1071.738281 743.039062 1063.929688 735.238281 C 1056.128906 727.429688 1043.460938 727.429688 1035.660156 735.238281 L 994.648438 776.25 C 986.839844 784.058594 986.839844 796.71875 994.648438 804.53125 C 1002.449219 812.328125 1015.121094 812.328125 1022.921875 804.53125 Z M 911.09375 683.640625 C 911.09375 672.601562 902.140625 663.640625 891.101562 663.640625 C 880.058594 663.640625 871.105469 672.601562 871.105469 683.640625 L 871.105469 741.640625 C 871.105469 752.679688 880.058594 761.640625 891.101562 761.640625 C 902.140625 761.640625 911.09375 752.679688 911.09375 741.640625 Z M 891.097656 769.550781 C 929.34375 769.550781 963.976562 785.058594 989.039062 810.128906 C 1014.109375 835.191406 1029.609375 869.828125 1029.609375 908.070312 C 1029.609375 946.320312 1014.109375 980.949219 989.039062 1006.019531 C 963.976562 1031.078125 929.34375 1046.589844 891.097656 1046.589844 C 852.847656 1046.589844 818.214844 1031.078125 793.152344 1006.019531 C 768.085938 980.949219 752.585938 946.320312 752.585938 908.070312 C 752.585938 869.828125 768.085938 835.191406 793.152344 810.128906 C 818.214844 785.058594 852.847656 769.550781 891.097656 769.550781 "/>
</svg>
